<svg xmlns="http://www.w3.org/2000/svg" width="220" height="220" viewBox="0 0 220 220" role="img" aria-label="Momo mock QR placeholder">
  <rect width="220" height="220" rx="16" fill="#ffffff"/>
  <rect x="8" y="8" width="204" height="204" rx="12" fill="none" stroke="#f0abfc" stroke-width="4"/>
  <g fill="#a50064">
    <rect x="28" y="28" width="48" height="48" rx="6"/>
    <rect x="144" y="28" width="48" height="48" rx="6"/>
    <rect x="28" y="144" width="48" height="48" rx="6"/>
    <rect x="92" y="28" width="20" height="20"/>
    <rect x="120" y="52" width="16" height="16"/>
    <rect x="92" y="88" width="20" height="20"/>
    <rect x="124" y="92" width="16" height="16"/>
    <rect x="152" y="120" width="20" height="20"/>
    <rect x="92" y="144" width="16" height="16"/>
    <rect x="120" y="168" width="20" height="20"/>
    <rect x="164" y="164" width="20" height="20"/>
  </g>
  <rect x="44" y="44" width="16" height="16" fill="#ffffff"/>
  <rect x="160" y="44" width="16" height="16" fill="#ffffff"/>
  <rect x="44" y="160" width="16" height="16" fill="#ffffff"/>
  <text x="110" y="118" text-anchor="middle" font-family="Arial, Helvetica, sans-serif" font-size="18" font-weight="800" fill="#a50064">MoMo</text>
  <text x="110" y="136" text-anchor="middle" font-family="Arial, Helvetica, sans-serif" font-size="10" fill="#64748b">SIMULATED</text>
</svg>
